<svg width="20" height="14" viewBox="0 0 20 14" fill="none" xmlns="http://www.w3.org/2000/svg">
<path d="M10.4388 13.9782L6.37656 13.9023C5.06131 13.8758 3.74279 13.9287 2.45333 13.6546C0.49177 13.2451 0.352805 11.2372 0.207394 9.55291C0.00703182 7.18507 0.0845979 4.77425 0.462707 2.42618C0.676162 1.10866 1.51619 0.322489 2.81527 0.236939C7.20062 -0.0735363 11.6151 -0.0367417 15.9908 0.108106C16.4529 0.121385 16.9182 0.19396 17.3739 0.276571C19.6232 0.679489 19.678 2.95489 19.8238 4.87034C19.9692 6.80557 19.9078 8.75072 19.6299 10.6728C19.4069 12.2642 18.9803 13.5987 17.1799 13.7275C14.9242 13.896 12.7202 14.0316 10.4581 13.9885C10.4582 13.9782 10.4452 13.9782 10.4388 13.9782ZM8.05058 9.94924C9.75048 8.95183 11.4179 7.97104 13.1081 6.98032C11.4051 5.9829 9.74076 5.00212 8.05058 4.01139V9.94924Z" fill="white"/>
</svg>
